<?xml version="1.0" encoding="UTF-8" standalone="no"?>
<!-- Created with Inkscape (http://www.inkscape.org/) -->
<svg
   xmlns:dc="http://purl.org/dc/elements/1.1/"
   xmlns:cc="http://creativecommons.org/ns#"
   xmlns:rdf="http://www.w3.org/1999/02/22-rdf-syntax-ns#"
   xmlns:svg="http://www.w3.org/2000/svg"
   xmlns="http://www.w3.org/2000/svg"
   xmlns:sodipodi="http://sodipodi.sourceforge.net/DTD/sodipodi-0.dtd"
   xmlns:inkscape="http://www.inkscape.org/namespaces/inkscape"
   width="570"
   height="580"
   id="svg3409"
   sodipodi:version="0.32"
   inkscape:version="0.46"
   sodipodi:docname="Ley de los senos.svg"
   inkscape:output_extension="org.inkscape.output.svg.inkscape"
   version="1.0">
  <defs
     id="defs3411">
    <inkscape:perspective
       sodipodi:type="inkscape:persp3d"
       inkscape:vp_x="0 : 526.18109 : 1"
       inkscape:vp_y="0 : 1000 : 0"
       inkscape:vp_z="744.09448 : 526.18109 : 1"
       inkscape:persp3d-origin="372.04724 : 350.78739 : 1"
       id="perspective3417" />
  </defs>
  <sodipodi:namedview
     id="base"
     pagecolor="#ffffff"
     bordercolor="#666666"
     borderopacity="1.0"
     inkscape:pageopacity="0.0"
     inkscape:pageshadow="2"
     inkscape:zoom="0.72363756"
     inkscape:cx="271.51775"
     inkscape:cy="261.0775"
     inkscape:document-units="px"
     inkscape:current-layer="layer1"
     showgrid="true"
     inkscape:object-paths="true"
     inkscape:object-nodes="true"
     objecttolerance="31"
     showguides="false"
     inkscape:guide-bbox="true"
     inkscape:snap-guide="true"
     guidetolerance="1"
     inkscape:snap-bbox="true"
     inkscape:window-width="1280"
     inkscape:window-height="721"
     inkscape:window-x="0"
     inkscape:window-y="18"
     inkscape:snap-global="false"
     gridtolerance="30"
     inkscape:snap-nodes="true">
    <sodipodi:guide
       orientation="1,0"
       position="50,667.85714"
       id="guide3443" />
    <inkscape:grid
       type="xygrid"
       id="grid3989"
       visible="true"
       enabled="true"
       spacingx="50px"
       spacingy="50px" />
  </sodipodi:namedview>
  <metadata
     id="metadata3414">
    <rdf:RDF>
      <cc:Work
         rdf:about="">
        <dc:format>image/svg+xml</dc:format>
        <dc:type
           rdf:resource="http://purl.org/dc/dcmitype/StillImage" />
      </cc:Work>
    </rdf:RDF>
  </metadata>
  <g
     inkscape:label="Capa 1"
     inkscape:groupmode="layer"
     id="layer1"
     transform="translate(-2023.862,-154.49097)">
    <path
       transform="translate(2023.862,154.49097)"
       style="fill:none;fill-opacity:1;fill-rule:evenodd;stroke:#37c837;stroke-width:3.02680135;stroke-linecap:round;stroke-linejoin:miter;stroke-miterlimit:4;stroke-dashoffset:0;stroke-opacity:1;marker:none;marker-start:none;marker-mid:none;marker-end:none;visibility:visible;display:inline;overflow:visible;enable-background:accumulate"
       d="M 454.72516,373.09528 C 454.8048,358.58938 459.19,346.22993 468.27077,334.91768"
       id="path3291" />
    <path
       transform="matrix(0.8024646,0,0,0.8024646,2036.4359,228.25803)"
       style="fill:none;fill-opacity:1;fill-rule:evenodd;stroke:#3771c8;stroke-width:3;stroke-linecap:round;stroke-linejoin:miter;stroke-miterlimit:4;stroke-dashoffset:0;stroke-opacity:1;marker:none;marker-start:none;marker-mid:none;marker-end:none;visibility:visible;display:inline;overflow:visible;enable-background:accumulate"
       d="M 74.613874,318.774 C 99.692711,325.68395 116.37151,347.56738 116.38569,373.58075 L 59.504471,373.61176 L 74.613874,318.774 z"
       id="path3289" />
    <path
       style="fill:none;fill-opacity:1;fill-rule:evenodd;stroke:#ff0000;stroke-width:3;stroke-linecap:butt;stroke-linejoin:miter;marker:none;marker-start:none;marker-mid:none;marker-end:none;stroke-miterlimit:4;stroke-dashoffset:0;stroke-opacity:1;visibility:visible;display:inline;overflow:visible;enable-background:accumulate"
       d="M 2191.9574,249.81736 C 2183.2144,261.35074 2169.0818,266.03098 2155.183,261.99583"
       id="path3230" />
    <path
       style="font-size:36px;font-style:italic;font-variant:normal;font-weight:normal;font-stretch:normal;text-align:start;line-height:100%;writing-mode:lr-tb;text-anchor:start;fill:#000000;fill-opacity:1;stroke:none;stroke-width:1px;stroke-linecap:butt;stroke-linejoin:miter;stroke-opacity:1;font-family:Georgia;-inkscape-font-specification:Georgia Italic"
       d="M 2169.8395,207.31946 L 2168.275,197.58118 L 2162.2985,207.31946 L 2169.8395,207.31946 z M 2167.15,217.44446 L 2167.4137,216.2843 C 2167.777,216.24915 2168.2018,216.19935 2168.6881,216.13489 C 2169.1744,216.07044 2169.5524,215.9972 2169.8219,215.91516 C 2170.1852,215.79798 2170.4576,215.67493 2170.6393,215.54602 C 2170.8209,215.41712 2170.9117,215.2179 2170.9118,214.94837 C 2170.9117,214.85462 2170.8414,214.2804 2170.7008,213.22571 C 2170.5602,212.17103 2170.361,210.68861 2170.1032,208.77845 L 2161.3493,208.77845 C 2160.9625,209.38783 2160.5524,210.09388 2160.1188,210.89661 C 2159.6852,211.69935 2159.3512,212.31165 2159.1168,212.73352 C 2158.9059,213.10853 2158.7037,213.52747 2158.5104,213.99036 C 2158.317,214.45325 2158.2203,214.76087 2158.2204,214.91321 C 2158.2203,215.29993 2158.5309,215.61048 2159.152,215.84485 C 2159.7731,216.07923 2160.5524,216.22571 2161.4899,216.2843 L 2161.2262,217.44446 L 2151.6461,217.44446 L 2151.9098,216.2843 C 2152.2145,216.26087 2152.61,216.19349 2153.0963,216.08216 C 2153.5827,215.97083 2153.9899,215.82142 2154.318,215.63391 C 2154.7282,215.39954 2155.1237,215.1095 2155.5045,214.7638 C 2155.8854,214.4181 2156.2926,213.89954 2156.7262,213.20813 C 2158.7535,209.9972 2160.9772,206.42299 2163.3971,202.48548 C 2165.817,198.548 2167.9469,195.10269 2169.7868,192.14954 L 2171.193,192.14954 L 2174.5153,213.75305 C 2174.5856,214.18665 2174.7027,214.55286 2174.8668,214.85169 C 2175.0309,215.15052 2175.277,215.42884 2175.6051,215.68665 C 2175.8395,215.85071 2176.1559,215.98841 2176.5543,216.09973 C 2176.9527,216.21106 2177.3043,216.27259 2177.609,216.2843 L 2177.3454,217.44446 L 2167.15,217.44446 z"
       id="text3208" />
    <path
       style="font-size:36px;font-style:italic;font-variant:normal;font-weight:normal;font-stretch:normal;text-align:start;line-height:100%;writing-mode:lr-tb;text-anchor:start;fill:#000000;fill-opacity:1;stroke:none;stroke-width:1px;stroke-linecap:butt;stroke-linejoin:miter;stroke-opacity:1;font-family:Georgia;-inkscape-font-specification:Georgia Italic"
       d="M 2066.7067,533.71802 C 2067.3513,534.06961 2067.8552,534.53543 2068.2185,535.11548 C 2068.5817,535.69558 2068.7634,536.37234 2068.7634,537.14576 C 2068.7634,538.21218 2068.5524,539.14968 2068.1306,539.95826 C 2067.7087,540.76687 2067.1579,541.44655 2066.4782,541.99732 C 2065.7868,542.55983 2065.0046,543.02565 2064.1315,543.39478 C 2063.2585,543.76393 2062.3766,544.03639 2061.486,544.21216 L 2061.486,544.37036 C 2062.1657,544.45241 2062.8688,544.61354 2063.5954,544.85376 C 2064.322,545.09401 2064.9782,545.41335 2065.5642,545.81177 C 2066.1852,546.22194 2066.6921,546.75221 2067.0847,547.40259 C 2067.4772,548.05299 2067.6735,548.8235 2067.6735,549.71411 C 2067.6735,551.03834 2067.3659,552.20728 2066.7507,553.22095 C 2066.1354,554.23463 2065.3591,555.05787 2064.4216,555.69068 C 2063.4138,556.37037 2062.3327,556.87134 2061.1784,557.19361 C 2060.0241,557.51587 2058.8376,557.67701 2057.6188,557.67701 L 2045.4372,557.67701 L 2045.7185,556.51685 C 2045.9997,556.49341 2046.4216,556.44361 2046.9841,556.36743 C 2047.5466,556.29126 2047.9509,556.20044 2048.197,556.09497 C 2048.6071,555.93091 2048.9206,555.70533 2049.1374,555.41822 C 2049.3542,555.13111 2049.5095,554.78248 2049.6032,554.37232 L 2053.7692,536.26685 C 2053.7927,536.14968 2053.8132,536.03543 2053.8308,535.92408 C 2053.8483,535.81277 2053.8571,535.69851 2053.8571,535.5813 C 2053.8571,535.33523 2053.8073,535.12136 2053.7077,534.9397 C 2053.6081,534.75808 2053.4352,534.60281 2053.1892,534.47388 C 2052.8493,534.2864 2052.489,534.14871 2052.1081,534.06079 C 2051.7272,533.97293 2051.3727,533.91726 2051.0446,533.8938 L 2051.3259,532.73365 L 2062.3298,532.73365 C 2063.1618,532.73367 2063.9382,532.80691 2064.6589,532.95337 C 2065.3796,533.09988 2066.0622,533.35476 2066.7067,533.71802 L 2066.7067,533.71802 z M 2062.9802,541.82154 C 2063.5309,541.17702 2063.9264,540.49441 2064.1667,539.77368 C 2064.4069,539.053 2064.527,538.23562 2064.5271,537.32154 C 2064.527,536.70046 2064.4157,536.17312 2064.1931,535.73951 C 2063.9704,535.30593 2063.6657,534.96023 2063.279,534.7024 C 2062.8923,534.45633 2062.4645,534.28347 2061.9958,534.18384 C 2061.527,534.08426 2061.0349,534.03445 2060.5192,534.03443 C 2060.1325,534.03445 2059.7018,534.04324 2059.2272,534.06079 C 2058.7526,534.0784 2058.3513,534.09304 2058.0231,534.10474 L 2055.7907,543.80786 L 2057.988,543.80786 C 2059.1364,543.80788 2060.1296,543.62624 2060.9675,543.26294 C 2061.8054,542.89968 2062.4763,542.41921 2062.9802,541.82154 L 2062.9802,541.82154 z M 2061.8376,553.88013 C 2062.3415,553.18873 2062.7223,552.43287 2062.9802,551.61255 C 2063.238,550.79225 2063.3669,549.98365 2063.3669,549.18677 C 2063.3669,547.93287 2062.945,546.9485 2062.1013,546.23365 C 2061.2575,545.51881 2060.0739,545.16139 2058.5505,545.16138 C 2057.8122,545.16139 2057.1794,545.17018 2056.6521,545.18775 C 2056.1247,545.20534 2055.7263,545.21999 2055.4567,545.23169 L 2053.4704,553.8274 C 2053.4352,553.99146 2053.4089,554.14381 2053.3913,554.28443 C 2053.3737,554.42506 2053.3649,554.55982 2053.3649,554.68872 C 2053.3649,555.2981 2053.6755,555.73755 2054.2966,556.00708 C 2054.9177,556.27662 2055.7087,556.41138 2056.6696,556.41138 C 2057.8532,556.41138 2058.8815,556.16822 2059.7546,555.68189 C 2060.6276,555.19556 2061.322,554.59498 2061.8376,553.88013 L 2061.8376,553.88013 z"
       id="text3212" />
    <text
       xml:space="preserve"
       style="font-size:36px;font-style:italic;font-variant:normal;font-weight:normal;font-stretch:normal;text-align:start;line-height:100%;writing-mode:lr-tb;text-anchor:start;fill:#000000;fill-opacity:1;stroke:none;stroke-width:1px;stroke-linecap:butt;stroke-linejoin:miter;stroke-opacity:1;font-family:Georgia;-inkscape-font-specification:Georgia Italic"
       x="2062.6448"
       y="558.32819"
       id="text3216"
       sodipodi:linespacing="100%"><tspan
         sodipodi:role="line"
         id="tspan3218"
         x="2062.6448"
         y="558.32819" /></text>
    <text
       xml:space="preserve"
       style="font-size:36px;font-style:italic;font-variant:normal;font-weight:normal;font-stretch:normal;text-align:start;line-height:100%;writing-mode:lr-tb;text-anchor:start;fill:#000000;fill-opacity:1;stroke:none;stroke-width:1px;stroke-linecap:butt;stroke-linejoin:miter;stroke-opacity:1;font-family:Georgia;-inkscape-font-specification:Georgia Italic"
       x="2054.8308"
       y="556.37469"
       id="text3220"
       sodipodi:linespacing="100%"><tspan
         sodipodi:role="line"
         id="tspan3222"
         x="2054.8308"
         y="556.37469" /></text>
    <path
       style="font-size:36px;font-style:italic;font-variant:normal;font-weight:normal;font-stretch:normal;text-align:start;line-height:100%;writing-mode:lr-tb;text-anchor:start;fill:#000000;fill-opacity:1;stroke:none;stroke-width:1px;stroke-linecap:butt;stroke-linejoin:miter;stroke-opacity:1;font-family:Georgia;-inkscape-font-specification:Georgia Italic"
       d="M 2564.2946,553.04779 C 2563.0173,553.04779 2561.8102,552.82514 2560.6735,552.37982 C 2559.5368,551.93451 2558.5466,551.28412 2557.7028,550.42865 C 2556.8473,549.56147 2556.1764,548.51264 2555.6901,547.28217 C 2555.2038,546.05171 2554.9606,544.66304 2554.9606,543.11615 C 2554.9606,540.90132 2555.3356,538.83296 2556.0856,536.91107 C 2556.8356,534.98922 2557.8669,533.27242 2559.1794,531.76068 C 2560.445,530.30758 2561.9655,529.14157 2563.7409,528.26264 C 2565.5163,527.38376 2567.3708,526.9443 2569.3044,526.94428 C 2570.7692,526.9443 2572.0553,527.11423 2573.1628,527.45404 C 2574.2702,527.79391 2575.1813,528.21579 2575.8962,528.71967 L 2576.8805,527.52436 L 2578.2868,527.52436 L 2576.3884,536.41889 L 2574.947,536.41889 L 2574.947,535.71576 C 2574.9469,534.75484 2574.8708,533.83785 2574.7184,532.96479 C 2574.5661,532.09176 2574.2731,531.30367 2573.8395,530.60053 C 2573.4176,529.92086 2572.8405,529.37887 2572.1081,528.97455 C 2571.3756,528.57028 2570.4411,528.36813 2569.3044,528.36811 C 2567.863,528.36813 2566.5241,528.75192 2565.2878,529.51947 C 2564.0514,530.28707 2562.9821,531.30953 2562.0798,532.58686 C 2561.1891,533.82906 2560.4743,535.35836 2559.9352,537.17475 C 2559.3962,538.99117 2559.1266,540.84273 2559.1266,542.72943 C 2559.1266,545.22554 2559.7389,547.24995 2560.9636,548.80268 C 2562.1882,550.35541 2563.8317,551.13178 2565.8942,551.13178 C 2567.6169,551.13178 2569.2018,550.62201 2570.6491,549.60248 C 2572.0964,548.58295 2573.277,547.21772 2574.1911,545.50678 L 2575.4567,546.17475 C 2573.9801,548.69428 2572.3337,550.46967 2570.5173,551.50092 C 2568.7009,552.53217 2566.6266,553.04779 2564.2946,553.04779 L 2564.2946,553.04779 z"
       id="text3224" />
    <text
       xml:space="preserve"
       style="font-size:36px;font-style:italic;font-variant:normal;font-weight:normal;font-stretch:normal;text-align:start;line-height:100%;writing-mode:lr-tb;text-anchor:start;fill:#000000;fill-opacity:1;stroke:none;stroke-width:1px;stroke-linecap:butt;stroke-linejoin:miter;stroke-opacity:1;font-family:Georgia;-inkscape-font-specification:Georgia Italic"
       x="2056.688"
       y="338.28391"
       id="text3234"
       sodipodi:linespacing="100%"><tspan
         sodipodi:role="line"
         id="tspan3236"
         x="2056.688"
         y="338.28391" /></text>
    <text
       xml:space="preserve"
       style="font-size:36px;font-style:italic;font-variant:normal;font-weight:normal;font-stretch:normal;text-align:start;line-height:100%;writing-mode:lr-tb;text-anchor:start;fill:#000000;fill-opacity:1;stroke:none;stroke-width:1px;stroke-linecap:butt;stroke-linejoin:miter;stroke-opacity:1;font-family:Georgia;-inkscape-font-specification:Georgia Italic"
       x="2161.6687"
       y="300.98816"
       id="text3242"
       sodipodi:linespacing="100%"><tspan
         sodipodi:role="line"
         id="tspan3244"
         x="2161.6687"
         y="300.98816" /></text>
    <path
       style="fill:#37c837;fill-opacity:1;fill-rule:evenodd;stroke:#37c837;stroke-width:6.0536027;stroke-linecap:round;stroke-linejoin:miter;marker:none;marker-start:none;marker-mid:none;marker-end:none;stroke-miterlimit:4.66666651;stroke-dasharray:none;stroke-dashoffset:0;stroke-opacity:1;visibility:visible;display:inline;overflow:visible;enable-background:accumulate"
       d="M 2084.1021,528.17124 L 2165.24,228.6103"
       id="path3280"
       sodipodi:nodetypes="cc" />
    <path
       style="fill:#ff0000;fill-rule:evenodd;stroke:#ff0000;stroke-width:6.00143719;stroke-linecap:round;stroke-linejoin:miter;stroke-miterlimit:4.66666651;stroke-dasharray:none;stroke-opacity:1"
       d="M 2083.9668,528.1658 L 2540.275,528.14272"
       id="path2506"
       sodipodi:nodetypes="cc" />
    <path
       style="fill:#3771c8;fill-opacity:1;fill-rule:evenodd;stroke:#3771c8;stroke-width:6;stroke-linecap:round;stroke-linejoin:miter;marker:none;marker-start:none;marker-mid:none;marker-end:none;stroke-miterlimit:4.66666651;stroke-dasharray:none;stroke-dashoffset:0;stroke-opacity:1;visibility:visible;display:inline;overflow:visible;enable-background:accumulate"
       d="M 2165.2028,228.18864 L 2540.5409,528.27591"
       id="path3278"
       sodipodi:nodetypes="cc" />
    <text
       xml:space="preserve"
       style="font-size:36px;font-style:italic;font-variant:normal;font-weight:normal;font-stretch:normal;text-align:start;line-height:100%;writing-mode:lr-tb;text-anchor:start;fill:#000000;fill-opacity:1;stroke:none;stroke-width:1px;stroke-linecap:butt;stroke-linejoin:miter;stroke-opacity:1;font-family:Georgia;-inkscape-font-specification:Georgia Italic"
       x="149.93694"
       y="145.79213"
       id="text3293"
       sodipodi:linespacing="100%"
       transform="translate(2023.862,154.49097)"><tspan
         sodipodi:role="line"
         id="tspan3295"
         x="149.93694"
         y="145.79213" /></text>
    <path
       transform="translate(2023.862,154.49097)"
       style="font-size:36px;font-style:italic;font-variant:normal;font-weight:normal;font-stretch:normal;text-align:start;line-height:100%;writing-mode:lr-tb;text-anchor:start;fill:#ff0000;fill-opacity:1;stroke:none;stroke-width:1px;stroke-linecap:butt;stroke-linejoin:miter;stroke-opacity:1;font-family:Georgia;-inkscape-font-specification:Georgia Italic"
       d="M 263.05055,407.41611 L 262.92751,407.41611 C 262.66968,407.62705 262.36206,407.89365 262.00465,408.21591 C 261.64722,408.53818 261.22828,408.8458 260.74782,409.13876 C 260.29078,409.43173 259.79273,409.68662 259.25368,409.90341 C 258.71461,410.12021 258.12867,410.22861 257.49586,410.22861 C 255.79664,410.22861 254.46363,409.61923 253.49684,408.40048 C 252.53004,407.18173 252.04664,405.51767 252.04665,403.40829 C 252.04664,401.95518 252.31618,400.54307 252.85524,399.17197 C 253.3943,397.80088 254.13844,396.57042 255.08766,395.48056 C 255.99,394.43761 257.06226,393.59679 258.30446,392.9581 C 259.54664,392.31944 260.82398,392.00011 262.13649,392.00009 C 262.96851,392.00011 263.76245,392.11144 264.51833,392.33408 C 265.27417,392.55675 265.8689,392.8087 266.30251,393.08994 L 269.5193,392.26376 L 269.73024,392.52744 L 267.05836,403.86533 C 266.9646,404.22861 266.86792,404.671 266.76833,405.19247 C 266.6687,405.71396 266.6189,406.09775 266.61891,406.34384 C 266.6189,407.01181 266.75952,407.46298 267.04079,407.69736 C 267.32202,407.93173 267.79663,408.04892 268.46461,408.04892 C 268.68725,408.04892 269.00366,408.01377 269.41383,407.94345 C 269.82397,407.87314 270.14038,407.79697 270.36305,407.71494 L 270.09938,408.83994 C 269.04467,409.26181 268.25952,409.5665 267.74391,409.754 C 267.22827,409.9415 266.60132,410.03525 265.86305,410.03525 C 265.01929,410.03525 264.35132,409.78915 263.85915,409.29697 C 263.36695,408.80478 263.09742,408.17783 263.05055,407.41611 L 263.05055,407.41611 z M 265.56422,396.30673 C 265.56421,395.92003 265.52319,395.55089 265.44118,395.19931 C 265.35913,394.84776 265.18921,394.51964 264.93141,394.21494 C 264.69702,393.92198 264.37476,393.68761 263.96461,393.51181 C 263.55445,393.33605 263.03882,393.24815 262.41774,393.24814 C 261.56226,393.24815 260.73023,393.5294 259.92165,394.09189 C 259.11304,394.6544 258.38648,395.41026 257.74196,396.35947 C 257.13258,397.2501 256.63453,398.32823 256.24782,399.59384 C 255.86109,400.85948 255.66774,402.14268 255.66774,403.44345 C 255.66774,404.1583 255.70875,404.79111 255.79079,405.34189 C 255.87281,405.89267 256.03102,406.39658 256.2654,406.85361 C 256.48805,407.29892 256.81031,407.64462 257.23219,407.89072 C 257.65406,408.13681 258.18726,408.25986 258.8318,408.25986 C 259.48804,408.25986 260.17652,408.07529 260.89723,407.70615 C 261.61792,407.33701 262.42945,406.68955 263.3318,405.76376 L 265.56422,396.30673 z"
       id="text3297" />
    <path
       transform="translate(2023.862,154.49097)"
       style="font-size:36px;font-style:normal;font-variant:normal;font-weight:normal;font-stretch:normal;text-indent:0;text-align:start;text-decoration:none;line-height:100%;letter-spacing:normal;word-spacing:normal;text-transform:none;direction:ltr;block-progression:tb;writing-mode:lr-tb;text-anchor:start;fill:#3771c8;fill-opacity:1;fill-rule:nonzero;stroke:none;stroke-width:1px;stroke-linecap:butt;stroke-linejoin:miter;stroke-miterlimit:4;stroke-dashoffset:0;stroke-opacity:1;marker:none;marker-start:none;marker-mid:none;marker-end:none;visibility:visible;display:inline;overflow:visible;enable-background:accumulate;font-family:Georgia;-inkscape-font-specification:Georgia Italic"
       d="M 371.78043,208.70268 C 371.78041,210.26129 371.49916,211.7525 370.93668,213.17632 C 370.37416,214.60015 369.63002,215.82769 368.70425,216.85893 C 367.75502,217.91362 366.68276,218.74272 365.48746,219.34624 C 364.29213,219.94975 363.02651,220.25151 361.69058,220.25151 C 360.68276,220.25151 359.79507,220.16655 359.0275,219.99663 C 358.25991,219.82671 357.60659,219.59526 357.06754,219.30229 C 356.51675,218.99761 356.05972,218.65483 355.69644,218.27397 C 355.33316,217.89311 355.00503,217.46831 354.71207,216.99956 L 359.24722,197.10112 C 359.30581,196.83161 359.35562,196.60017 359.39664,196.40678 C 359.43765,196.21345 359.45815,196.01716 359.45816,195.81792 C 359.45815,195.39607 359.38784,195.07087 359.24722,194.84233 C 359.10659,194.61384 358.90737,194.44099 358.64957,194.32378 C 358.40347,194.21833 358.09292,194.14802 357.71793,194.11284 C 357.34292,194.07771 356.96206,194.03669 356.57535,193.98979 L 356.82144,192.91753 L 363.34293,192.51323 L 363.51871,192.7769 L 360.84683,204.46635 L 360.91714,204.46635 C 361.97182,203.52887 362.90053,202.88141 363.70328,202.52397 C 364.506,202.16657 365.28823,201.98786 366.04996,201.98784 C 367.83119,201.98786 369.23158,202.5943 370.25113,203.80717 C 371.27064,205.02008 371.78041,206.65191 371.78043,208.70268 L 371.78043,208.70268 z M 368.15933,208.79057 C 368.15932,208.16949 368.10365,207.54547 367.99234,206.9185 C 367.881,206.29156 367.69643,205.76715 367.43863,205.34526 C 367.16908,204.89996 366.79994,204.5484 366.33121,204.29057 C 365.86244,204.03278 365.28237,203.90387 364.59097,203.90385 C 364.18081,203.90387 363.79409,203.97418 363.43082,204.11479 C 363.06753,204.25543 362.69253,204.44293 362.30582,204.67729 C 361.96596,204.88824 361.63491,205.14313 361.31265,205.44194 C 360.99038,205.74078 360.69448,206.00738 360.42496,206.24174 L 358.08707,216.66557 C 358.12222,216.89995 358.22769,217.15776 358.40347,217.43901 C 358.57925,217.72026 358.8019,217.96636 359.07144,218.17729 C 359.39956,218.44682 359.7687,218.6519 360.17886,218.79253 C 360.58901,218.93315 361.04018,219.00346 361.53238,219.00346 C 362.45815,219.00346 363.32827,218.731 364.14273,218.18608 C 364.95717,217.64116 365.65737,216.90581 366.24332,215.98003 C 366.88783,214.97222 367.3683,213.84722 367.68472,212.60503 C 368.00111,211.36285 368.15932,210.09136 368.15933,208.79057 L 368.15933,208.79057 z"
       id="text3301" />
    <path
       style="font-size:36px;font-style:normal;font-variant:normal;font-weight:normal;font-stretch:normal;text-indent:0;text-align:start;text-decoration:none;line-height:100%;letter-spacing:normal;word-spacing:normal;text-transform:none;direction:ltr;block-progression:tb;writing-mode:lr-tb;text-anchor:start;fill:#1db01d;fill-opacity:1;fill-rule:evenodd;stroke:none;stroke-width:3.02680135;stroke-linecap:round;stroke-linejoin:miter;stroke-miterlimit:4;stroke-dashoffset:0;stroke-opacity:1;marker:none;marker-start:none;marker-mid:none;marker-end:none;visibility:visible;display:inline;overflow:visible;enable-background:accumulate;font-family:Georgia;-inkscape-font-specification:Georgia"
       d="M 2104.2344,373.07162 C 2102.1836,373.07162 2100.5635,372.47397 2099.374,371.27866 C 2098.1846,370.08335 2097.5898,368.38413 2097.5898,366.181 C 2097.5898,364.71616 2097.8154,363.31284 2098.2666,361.97104 C 2098.7178,360.62925 2099.3477,359.43687 2100.1562,358.39389 C 2100.9648,357.35094 2101.9873,356.4984 2103.2236,355.83627 C 2104.46,355.17418 2105.834,354.84313 2107.3457,354.84311 C 2109.0215,354.84313 2110.2959,355.19762 2111.1689,355.90659 C 2112.042,356.61559 2112.4785,357.50914 2112.4785,358.58725 C 2112.4785,359.39586 2112.2881,360.10484 2111.9072,360.7142 C 2111.5264,361.32359 2110.9551,361.62828 2110.1934,361.62827 C 2109.5605,361.62828 2109.0859,361.47007 2108.7695,361.15366 C 2108.4531,360.83726 2108.2949,360.4857 2108.2949,360.09897 C 2108.2949,359.72398 2108.4238,359.21129 2108.6816,358.56088 C 2108.9394,357.91051 2109.1445,357.38609 2109.2969,356.98764 C 2109.168,356.67125 2108.8808,356.4398 2108.4355,356.2933 C 2107.9902,356.14684 2107.5273,356.07359 2107.0469,356.07358 C 2105.4531,356.07359 2104.0791,357.0023 2102.9248,358.85971 C 2101.7705,360.71714 2101.1934,362.99351 2101.1934,365.68881 C 2101.1934,367.35288 2101.5654,368.67417 2102.3096,369.65268 C 2103.0537,370.6312 2104.0586,371.12045 2105.3242,371.12045 C 2106.4609,371.12045 2107.4717,370.81577 2108.3564,370.20639 C 2109.2412,369.59702 2110.0879,368.73569 2110.8965,367.62241 L 2111.8984,368.36069 C 2111.0898,369.63803 2109.9912,370.74253 2108.6025,371.67416 C 2107.2139,372.6058 2105.7578,373.07162 2104.2344,373.07162 L 2104.2344,373.07162 z"
       id="text3305" />
    <path
       transform="translate(2023.862,154.49097)"
       style="font-size:36px;font-style:italic;font-variant:normal;font-weight:normal;font-stretch:normal;text-align:start;line-height:100%;writing-mode:lr-tb;text-anchor:start;fill:#3771c8;fill-opacity:1;stroke:none;stroke-width:1px;stroke-linecap:butt;stroke-linejoin:miter;stroke-opacity:1;font-family:Georgia;-inkscape-font-specification:Georgia Italic"
       d="M 127.30453,332.17648 C 128.0428,332.84447 128.60237,333.65013 128.98325,334.59348 C 129.36409,335.53685 129.55452,336.57688 129.55453,337.71359 C 129.55452,340.20969 128.77229,342.31321 127.20786,344.02414 C 125.64339,345.73508 123.65413,346.59055 121.24008,346.59055 C 120.22054,346.59055 119.36214,346.4675 118.66489,346.22141 C 117.96761,345.97531 117.4139,345.70578 117.00375,345.41281 L 116.86313,345.41281 L 116.86313,353.97336 L 113.57602,353.97336 L 113.57602,328.52023 C 113.57602,326.76244 113.70785,325.36791 113.97153,324.33664 C 114.2352,323.30541 114.85922,322.2683 115.8436,321.22531 C 116.48812,320.53393 117.30258,319.97729 118.28696,319.55539 C 119.27132,319.13354 120.37874,318.9226 121.60922,318.92258 C 122.52327,318.9226 123.39046,319.03393 124.21078,319.25656 C 125.03108,319.47924 125.7635,319.83081 126.40805,320.31125 C 127.05257,320.78002 127.55647,321.36889 127.91977,322.07785 C 128.28303,322.78686 128.46467,323.65112 128.46469,324.67062 C 128.46467,325.60814 128.28889,326.4226 127.93735,327.11398 C 127.58577,327.80541 127.15803,328.36205 126.65414,328.78391 C 126.16194,329.21752 125.6053,329.56322 124.98422,329.82101 C 124.36311,330.07884 123.80062,330.23705 123.29672,330.29562 L 123.36703,330.45383 C 123.90608,330.489 124.54768,330.65013 125.29184,330.93723 C 126.03596,331.22435 126.70686,331.63744 127.30453,332.17648 L 127.30453,332.17648 z M 125.88071,337.78391 C 125.88069,336.9636 125.81331,336.13743 125.67856,335.30539 C 125.54378,334.47337 125.31233,333.78196 124.98422,333.23117 C 124.63265,332.65697 124.15511,332.20579 123.55161,331.87766 C 122.94808,331.54954 122.17171,331.38548 121.2225,331.38547 L 119.57016,331.38547 L 119.57016,329.71555 L 120.76547,329.71555 C 121.28109,329.71556 121.81722,329.62474 122.37387,329.44308 C 122.9305,329.26146 123.40804,328.98314 123.80649,328.60812 C 124.26351,328.18627 124.62093,327.68822 124.87875,327.11398 C 125.13655,326.53978 125.26546,325.76635 125.26547,324.79367 C 125.26546,323.34057 124.9139,322.22143 124.21078,321.43625 C 123.50765,320.65112 122.58773,320.25854 121.45102,320.25851 C 120.77132,320.25854 120.17074,320.36987 119.64926,320.5925 C 119.12777,320.81518 118.64437,321.22534 118.19907,321.82297 C 117.7889,322.37377 117.46371,323.13549 117.22348,324.10812 C 116.98324,325.0808 116.86312,326.22924 116.86313,327.55344 L 116.86313,342.49484 C 117.10922,343.24485 117.60726,343.90109 118.35727,344.46359 C 119.10726,345.02609 119.96859,345.30734 120.94125,345.30734 C 122.44124,345.30734 123.63948,344.63645 124.53598,343.29465 C 125.43245,341.95285 125.88069,340.11594 125.88071,337.78391 L 125.88071,337.78391 z"
       id="text3309" />
    <path
       style="font-size:36px;font-style:normal;font-variant:normal;font-weight:normal;font-stretch:normal;text-align:start;line-height:100%;writing-mode:lr-tb;text-anchor:start;fill:#ff0000;fill-opacity:1;stroke:none;stroke-width:1px;stroke-linecap:butt;stroke-linejoin:miter;stroke-opacity:1;font-family:Georgia;-inkscape-font-specification:Georgia"
       d="M 2190.3472,290.49435 C 2189.7495,290.70529 2189.1225,290.87521 2188.4663,291.00412 C 2187.81,291.13303 2187.2944,291.19748 2186.9194,291.19748 C 2185.935,291.19748 2185.1909,290.9133 2184.687,290.34494 C 2184.1831,289.77658 2183.8315,288.75998 2183.6323,287.29514 C 2183.3276,287.79904 2182.9556,288.3176 2182.5161,288.8508 C 2182.0766,289.384 2181.6167,289.81467 2181.1362,290.14279 C 2180.5854,290.52951 2180.0288,290.82541 2179.4663,291.03049 C 2178.9038,291.23556 2178.2241,291.3381 2177.4272,291.3381 C 2176.4546,291.3381 2175.52,291.12131 2174.6235,290.68771 C 2173.727,290.25412 2172.9331,289.63303 2172.2417,288.82443 C 2171.5503,288.01584 2171.0054,287.04319 2170.6069,285.90646 C 2170.2085,284.76975 2170.0093,283.51585 2170.0093,282.14474 C 2170.0093,280.89085 2170.2202,279.7014 2170.6421,278.57639 C 2171.064,277.4514 2171.6558,276.46117 2172.4175,275.60568 C 2173.144,274.7971 2174.0083,274.16429 2175.0103,273.70724 C 2176.0122,273.25023 2177.0522,273.02172 2178.1304,273.0217 C 2179.5249,273.02172 2180.7085,273.35863 2181.6812,274.03244 C 2182.6538,274.70628 2183.3686,275.64671 2183.8257,276.85373 L 2184.2651,273.49631 L 2187.5347,273.49631 C 2187.4526,274.32836 2187.2739,275.57054 2186.9985,277.22287 C 2186.7231,278.87523 2186.4038,280.67991 2186.0405,282.63693 C 2186.0757,284.3596 2186.272,285.79807 2186.6294,286.95236 C 2186.9868,288.10666 2187.4468,288.84787 2188.0093,289.17599 C 2188.185,289.28147 2188.519,289.34006 2189.0112,289.35178 C 2189.5034,289.3635 2189.9487,289.36936 2190.3472,289.36935 L 2190.3472,290.49435 z M 2183.2983,281.63498 C 2183.2163,280.77952 2183.0815,279.91233 2182.894,279.03342 C 2182.7065,278.15452 2182.4253,277.37523 2182.0503,276.69553 C 2181.687,276.00413 2181.2153,275.44456 2180.6353,275.01682 C 2180.0552,274.5891 2179.3374,274.37523 2178.4819,274.37521 C 2177.0991,274.37523 2175.9536,275.08421 2175.0454,276.50217 C 2174.1372,277.92015 2173.6831,279.87132 2173.6831,282.35568 C 2173.6831,283.30491 2173.7827,284.20432 2173.9819,285.05392 C 2174.1811,285.90354 2174.4624,286.63889 2174.8257,287.25998 C 2175.2124,287.91623 2175.7192,288.44651 2176.3462,288.8508 C 2176.9731,289.2551 2177.7202,289.45725 2178.5874,289.45724 C 2180.0171,289.45725 2181.1304,288.81565 2181.9272,287.53244 C 2182.7241,286.24924 2183.1811,284.28342 2183.2983,281.63498 L 2183.2983,281.63498 z"
       id="text3313" />
    <path
       style="font-size:36px;font-style:normal;font-variant:normal;font-weight:normal;font-stretch:normal;text-align:start;line-height:100%;writing-mode:lr-tb;text-anchor:start;fill:#24a024;fill-opacity:1;fill-rule:evenodd;stroke:none;stroke-width:3.02680135;stroke-linecap:round;stroke-linejoin:miter;stroke-miterlimit:4;stroke-dashoffset:0;stroke-opacity:1;marker:none;marker-start:none;marker-mid:none;marker-end:none;visibility:visible;display:inline;overflow:visible;enable-background:accumulate;font-family:Georgia;-inkscape-font-specification:Georgia"
       d="M 2461.3701,511.12476 C 2461.3701,512.01538 2461.3174,512.72143 2461.2119,513.24292 C 2461.1064,513.7644 2460.9658,514.14819 2460.79,514.39429 C 2460.6142,514.64037 2460.418,514.79858 2460.2012,514.8689 C 2459.9844,514.9392 2459.7353,514.97436 2459.4541,514.97437 C 2458.8564,514.97436 2458.4023,514.78393 2458.0918,514.40308 C 2457.7812,514.02221 2457.626,513.45092 2457.626,512.68921 C 2457.626,511.86889 2457.6992,510.96655 2457.8457,509.98218 C 2457.9922,508.9978 2458.206,507.97241 2458.4873,506.90601 C 2457.585,504.2107 2456.706,501.87574 2455.8506,499.90112 C 2454.9951,497.92652 2453.9639,495.56813 2452.7568,492.82593 C 2452.4873,492.22829 2452.1123,491.80934 2451.6318,491.56909 C 2451.1514,491.32887 2450.5303,491.19118 2449.7686,491.15601 L 2449.7686,490.01343 L 2454.9893,489.62671 L 2455.2354,489.8728 C 2455.5518,490.69313 2455.9795,491.70387 2456.5186,492.90503 C 2457.0576,494.10621 2457.6143,495.40992 2458.1885,496.81616 C 2458.6338,497.8943 2459.0937,499.15406 2459.5684,500.59546 C 2460.043,502.03687 2460.3213,503.15601 2460.4033,503.95288 C 2460.79,502.93335 2461.2588,501.88453 2461.8096,500.8064 C 2462.3603,499.72828 2462.7705,498.87281 2463.04,498.23999 C 2463.333,497.54859 2463.5469,496.98609 2463.6816,496.55249 C 2463.8164,496.11891 2463.8838,495.72047 2463.8838,495.35718 C 2463.8838,494.65407 2463.7959,493.93336 2463.6201,493.19507 C 2463.4443,492.4568 2463.3564,491.85329 2463.3564,491.38452 C 2463.3564,490.86891 2463.5498,490.40309 2463.9365,489.98706 C 2464.3232,489.57106 2464.8213,489.36305 2465.4307,489.36304 C 2466.0517,489.36305 2466.5439,489.53884 2466.9072,489.89038 C 2467.2705,490.24196 2467.4521,490.75173 2467.4521,491.41968 C 2467.4521,492.15797 2467.2734,492.94899 2466.916,493.79272 C 2466.5586,494.63649 2466.1455,495.52125 2465.6768,496.44702 C 2464.9736,497.84156 2464.1504,499.39429 2463.207,501.10522 C 2462.2637,502.81617 2461.4756,504.5271 2460.8428,506.23804 C 2460.9599,507.28101 2461.0771,508.22436 2461.1943,509.06812 C 2461.3115,509.91186 2461.3701,510.59741 2461.3701,511.12476 L 2461.3701,511.12476 z"
       id="text3317" />
    <path
       style="font-size:42px;font-style:normal;font-variant:normal;font-weight:normal;font-stretch:normal;text-indent:0;text-align:start;text-decoration:none;line-height:100%;letter-spacing:normal;word-spacing:normal;text-transform:none;direction:ltr;block-progression:tb;writing-mode:lr-tb;text-anchor:start;fill:#27a127;fill-opacity:1;fill-rule:evenodd;stroke:none;stroke-width:3.02680135;stroke-linecap:round;stroke-linejoin:miter;stroke-miterlimit:4;stroke-dashoffset:0;stroke-opacity:1;marker:none;marker-start:none;marker-mid:none;marker-end:none;visibility:visible;display:inline;overflow:visible;enable-background:accumulate;font-family:Georgia;-inkscape-font-specification:Georgia"
       d="M 2458.178,688.67188 C 2458.7385,689.16407 2459.1692,689.73145 2459.47,690.37402 C 2459.7707,691.01661 2459.9211,691.80274 2459.9211,692.73242 C 2459.9211,694.60547 2459.2204,696.13672 2457.8191,697.32617 C 2456.4177,698.51563 2454.6028,699.11035 2452.3743,699.11035 C 2451.1985,699.11035 2450.115,698.89844 2449.1238,698.47461 C 2448.1326,698.05078 2447.425,697.66113 2447.0012,697.30566 L 2446.5911,698.63867 L 2445.053,698.63867 L 2444.8479,691.60449 L 2446.2629,691.60449 C 2446.3723,692.1377 2446.6047,692.75977 2446.9602,693.4707 C 2447.3157,694.18165 2447.7463,694.82422 2448.2522,695.39844 C 2448.7854,696 2449.4246,696.50586 2450.1697,696.91602 C 2450.9148,697.32617 2451.7522,697.53125 2452.6819,697.53125 C 2453.9944,697.53125 2455.0061,697.23389 2455.717,696.63916 C 2456.428,696.04444 2456.7834,695.19336 2456.7834,694.08594 C 2456.7834,693.51172 2456.6706,693.01612 2456.4451,692.59912 C 2456.2195,692.18214 2455.8879,691.81641 2455.4504,691.50195 C 2454.9993,691.18751 2454.4455,690.90382 2453.7893,690.65088 C 2453.133,690.39796 2452.4016,690.14845 2451.595,689.90234 C 2450.9524,689.71095 2450.238,689.44776 2449.4519,689.11279 C 2448.6658,688.77784 2447.9924,688.38478 2447.4319,687.93359 C 2446.8303,687.45509 2446.3381,686.8672 2445.9553,686.16992 C 2445.5725,685.47267 2445.3811,684.65236 2445.3811,683.70898 C 2445.3811,682.0547 2445.9963,680.65334 2447.2268,679.50488 C 2448.4573,678.35647 2450.1047,677.78225 2452.1692,677.78223 C 2452.9621,677.78225 2453.7722,677.88479 2454.5994,678.08984 C 2455.4265,678.29494 2456.0998,678.54104 2456.6194,678.82812 L 2457.0911,677.76172 L 2458.5676,677.76172 L 2458.8752,684.2627 L 2457.4602,684.2627 C 2457.1731,682.81349 2456.5544,681.63429 2455.6042,680.7251 C 2454.654,679.81594 2453.4954,679.36135 2452.1282,679.36133 C 2451.0071,679.36135 2450.1252,679.64162 2449.4827,680.20215 C 2448.8401,680.76271 2448.5188,681.43947 2448.5188,682.23242 C 2448.5188,682.84767 2448.6248,683.36037 2448.8367,683.77051 C 2449.0486,684.18068 2449.3664,684.52931 2449.7903,684.81641 C 2450.2004,685.08986 2450.7165,685.3462 2451.3386,685.58545 C 2451.9607,685.82472 2452.7297,686.09474 2453.6458,686.39551 C 2454.5481,686.68263 2455.3992,687.01759 2456.199,687.40039 C 2456.9988,687.78321 2457.6584,688.20704 2458.178,688.67188 L 2458.178,688.67188 z M 2480.9211,693.81934 C 2480.0735,695.43262 2478.9387,696.71778 2477.5168,697.6748 C 2476.095,698.63184 2474.4612,699.11035 2472.6155,699.11035 C 2470.9885,699.11035 2469.5632,698.82324 2468.3396,698.24902 C 2467.116,697.67481 2466.1077,696.89551 2465.3147,695.91113 C 2464.5217,694.92676 2463.9304,693.77833 2463.5408,692.46582 C 2463.1511,691.15333 2462.9563,689.76563 2462.9563,688.30273 C 2462.9563,686.99025 2463.1648,685.70167 2463.5818,684.43701 C 2463.9988,683.17238 2464.6106,682.0342 2465.4172,681.02246 C 2466.1965,680.05178 2467.1638,679.26906 2468.3191,678.67432 C 2469.4744,678.07961 2470.7698,677.78225 2472.2053,677.78223 C 2473.6819,677.78225 2474.9465,678.01467 2475.9993,678.47949 C 2477.052,678.94436 2477.9065,679.5801 2478.5627,680.38672 C 2479.1916,681.15236 2479.6599,682.0547 2479.9675,683.09375 C 2480.2751,684.13283 2480.4289,685.26076 2480.429,686.47754 L 2480.429,687.83105 L 2467.0374,687.83105 C 2467.0373,689.15724 2467.1638,690.36036 2467.4167,691.44043 C 2467.6697,692.52051 2468.0696,693.47071 2468.6165,694.29102 C 2469.1497,695.08399 2469.8469,695.70948 2470.7083,696.16748 C 2471.5696,696.62549 2472.595,696.85449 2473.7844,696.85449 C 2475.0012,696.85449 2476.0505,696.5708 2476.9324,696.00342 C 2477.8142,695.43604 2478.6653,694.41407 2479.4856,692.9375 L 2480.9211,693.81934 z M 2476.3889,686.1084 C 2476.3889,685.34279 2476.324,684.52247 2476.1941,683.64746 C 2476.0642,682.77248 2475.8557,682.04103 2475.5686,681.45312 C 2475.2541,680.82424 2474.8235,680.31154 2474.2766,679.91504 C 2473.7297,679.51857 2473.0256,679.32033 2472.1643,679.32031 C 2470.7288,679.32033 2469.5359,679.91848 2468.5857,681.11475 C 2467.6355,682.31105 2467.1194,683.9756 2467.0374,686.1084 L 2476.3889,686.1084 z M 2505.6331,698.57715 L 2495.7278,698.57715 L 2495.7278,697.22363 C 2496.0422,697.19629 2496.3874,697.16895 2496.7634,697.1416 C 2497.1394,697.11426 2497.4504,697.05957 2497.6965,696.97754 C 2498.0793,696.85449 2498.363,696.63916 2498.5476,696.33154 C 2498.7322,696.02393 2498.8244,695.62403 2498.8245,695.13184 L 2498.8245,684.73438 C 2498.8244,683.29884 2498.4861,682.19142 2497.8093,681.41211 C 2497.1326,680.63283 2496.3088,680.24318 2495.3381,680.24316 C 2494.6135,680.24318 2493.9504,680.35598 2493.3489,680.58154 C 2492.7473,680.80715 2492.2141,681.084 2491.7493,681.41211 C 2491.2981,681.72658 2490.9392,682.06496 2490.6726,682.42725 C 2490.406,682.78957 2490.2112,683.08009 2490.0881,683.29883 L 2490.0881,694.92676 C 2490.0881,695.3916 2490.1838,695.77442 2490.3752,696.0752 C 2490.5666,696.37598 2490.8538,696.6084 2491.2366,696.77246 C 2491.5237,696.90918 2491.8347,697.01172 2492.1697,697.08008 C 2492.5046,697.14844 2492.8498,697.19629 2493.2053,697.22363 L 2493.2053,698.57715 L 2483.3,698.57715 L 2483.3,697.22363 C 2483.6145,697.19629 2483.9392,697.16895 2484.2742,697.1416 C 2484.6091,697.11426 2484.8997,697.05957 2485.1458,696.97754 C 2485.5286,696.85449 2485.8123,696.63916 2485.9968,696.33154 C 2486.1814,696.02393 2486.2737,695.62403 2486.2737,695.13184 L 2486.2737,682.64258 C 2486.2737,682.17775 2486.1746,681.75051 2485.9763,681.36084 C 2485.7781,680.97121 2485.5012,680.65334 2485.1458,680.40723 C 2484.886,680.24318 2484.5784,680.12355 2484.2229,680.04834 C 2483.8674,679.97316 2483.4846,679.92189 2483.0745,679.89453 L 2483.0745,678.56152 L 2489.801,678.11035 L 2490.0881,678.39746 L 2490.0881,681.24805 L 2490.1907,681.24805 C 2490.5188,680.91994 2490.9289,680.52687 2491.4211,680.06885 C 2491.9133,679.61086 2492.3782,679.2383 2492.8157,678.95117 C 2493.3215,678.62307 2493.9231,678.34963 2494.6204,678.13086 C 2495.3176,677.91213 2496.1037,677.80276 2496.9788,677.80273 C 2498.9201,677.80276 2500.3591,678.40774 2501.2957,679.61768 C 2502.2322,680.82765 2502.7004,682.43752 2502.7004,684.44727 L 2502.7004,694.96777 C 2502.7004,695.44629 2502.7824,695.83252 2502.9465,696.12646 C 2503.1106,696.42041 2503.3908,696.64942 2503.7874,696.81348 C 2504.1155,696.9502 2504.3991,697.0459 2504.6384,697.10059 C 2504.8777,697.15527 2505.2092,697.19629 2505.6331,697.22363 L 2505.6331,698.57715 z"
       id="text3332" />
    <path
       style="font-size:42px;font-style:normal;font-variant:normal;font-weight:normal;font-stretch:normal;text-indent:0;text-align:start;text-decoration:none;line-height:100%;letter-spacing:normal;word-spacing:normal;text-transform:none;direction:ltr;block-progression:tb;writing-mode:lr-tb;text-anchor:start;fill:#27a127;fill-opacity:1;fill-rule:evenodd;stroke:none;stroke-width:3.02680135;stroke-linecap:round;stroke-linejoin:miter;stroke-miterlimit:4;stroke-dashoffset:0;stroke-opacity:1;marker:none;marker-start:none;marker-mid:none;marker-end:none;visibility:visible;display:inline;overflow:visible;enable-background:accumulate;font-family:Georgia;-inkscape-font-specification:Georgia"
       d="M 2529.9417,703.19141 C 2529.9416,704.23046 2529.8801,705.05419 2529.7571,705.6626 C 2529.634,706.27099 2529.47,706.71874 2529.2649,707.00586 C 2529.0598,707.29296 2528.8308,707.47753 2528.5779,707.55957 C 2528.3249,707.64159 2528.0344,707.68261 2527.7063,707.68262 C 2527.009,707.68261 2526.4792,707.46044 2526.1169,707.01611 C 2525.7546,706.57177 2525.5735,705.90527 2525.5735,705.0166 C 2525.5735,704.05956 2525.6589,703.00683 2525.8298,701.8584 C 2526.0007,700.70996 2526.2502,699.51367 2526.5784,698.26953 C 2525.5256,695.125 2524.5002,692.40089 2523.5022,690.09717 C 2522.5041,687.79347 2521.301,685.04201 2519.8928,681.84277 C 2519.5784,681.14553 2519.1409,680.65676 2518.5803,680.37646 C 2518.0198,680.09621 2517.2952,679.93557 2516.4065,679.89453 L 2516.4065,678.56152 L 2522.4973,678.11035 L 2522.7844,678.39746 C 2523.1536,679.35451 2523.6526,680.53371 2524.2815,681.93506 C 2524.9104,683.33644 2525.5598,684.85744 2526.2297,686.49805 C 2526.7493,687.75587 2527.2859,689.2256 2527.8396,690.90723 C 2528.3933,692.58887 2528.718,693.89454 2528.8137,694.82422 C 2529.2649,693.63477 2529.8118,692.41114 2530.4543,691.15332 C 2531.0969,689.89552 2531.5754,688.89747 2531.8899,688.15918 C 2532.2317,687.35255 2532.4812,686.6963 2532.6384,686.19043 C 2532.7956,685.68458 2532.8743,685.21974 2532.8743,684.7959 C 2532.8743,683.9756 2532.7717,683.13478 2532.5667,682.27344 C 2532.3616,681.41213 2532.259,680.70803 2532.259,680.16113 C 2532.259,679.55959 2532.4846,679.01613 2532.9358,678.53076 C 2533.3869,678.04543 2533.968,677.80276 2534.679,677.80273 C 2535.4035,677.80276 2535.9778,678.00783 2536.4016,678.41797 C 2536.8254,678.82814 2537.0373,679.42287 2537.0374,680.20215 C 2537.0373,681.06349 2536.8288,681.98634 2536.4119,682.9707 C 2535.9949,683.95509 2535.5129,684.98732 2534.9661,686.06738 C 2534.1457,687.69435 2533.1853,689.50587 2532.0847,691.50195 C 2530.9841,693.49805 2530.0647,695.49414 2529.3264,697.49023 C 2529.4631,698.70703 2529.5998,699.80762 2529.7366,700.79199 C 2529.8733,701.77636 2529.9416,702.57617 2529.9417,703.19141 L 2529.9417,703.19141 z"
       id="text3350" />
    <path
       style="font-size:42px;font-style:normal;font-variant:normal;font-weight:normal;font-stretch:normal;text-indent:0;text-align:start;text-decoration:none;line-height:100%;letter-spacing:normal;word-spacing:normal;text-transform:none;direction:ltr;block-progression:tb;writing-mode:lr-tb;text-anchor:start;fill:#3771c8;fill-opacity:1;fill-rule:nonzero;stroke:none;stroke-width:1px;stroke-linecap:butt;stroke-linejoin:miter;stroke-miterlimit:4;stroke-dashoffset:0;stroke-opacity:1;marker:none;marker-start:none;marker-mid:none;marker-end:none;visibility:visible;display:inline;overflow:visible;enable-background:accumulate;font-family:Georgia;-inkscape-font-specification:Georgia"
       d="M 2272.4365,690.67188 C 2272.9971,691.16407 2273.4277,691.73145 2273.7285,692.37402 C 2274.0293,693.01661 2274.1797,693.80274 2274.1797,694.73242 C 2274.1797,696.60547 2273.479,698.13672 2272.0776,699.32617 C 2270.6763,700.51563 2268.8613,701.11035 2266.6328,701.11035 C 2265.457,701.11035 2264.3735,700.89844 2263.3823,700.47461 C 2262.3911,700.05078 2261.6836,699.66113 2261.2598,699.30566 L 2260.8496,700.63867 L 2259.3115,700.63867 L 2259.1064,693.60449 L 2260.5215,693.60449 C 2260.6309,694.1377 2260.8633,694.75977 2261.2188,695.4707 C 2261.5742,696.18165 2262.0049,696.82422 2262.5107,697.39844 C 2263.0439,698 2263.6831,698.50586 2264.4282,698.91602 C 2265.1733,699.32617 2266.0107,699.53125 2266.9404,699.53125 C 2268.2529,699.53125 2269.2646,699.23389 2269.9756,698.63916 C 2270.6865,698.04444 2271.042,697.19336 2271.042,696.08594 C 2271.042,695.51172 2270.9292,695.01612 2270.7036,694.59912 C 2270.478,694.18214 2270.1465,693.81641 2269.709,693.50195 C 2269.2578,693.18751 2268.7041,692.90382 2268.0479,692.65088 C 2267.3916,692.39796 2266.6601,692.14845 2265.8535,691.90234 C 2265.2109,691.71095 2264.4966,691.44776 2263.7104,691.11279 C 2262.9243,690.77784 2262.251,690.38478 2261.6904,689.93359 C 2261.0889,689.45509 2260.5967,688.8672 2260.2139,688.16992 C 2259.8311,687.47267 2259.6396,686.65236 2259.6396,685.70898 C 2259.6396,684.0547 2260.2549,682.65334 2261.4854,681.50488 C 2262.7158,680.35647 2264.3633,679.78225 2266.4277,679.78223 C 2267.2207,679.78225 2268.0308,679.88479 2268.8579,680.08984 C 2269.685,680.29494 2270.3584,680.54104 2270.8779,680.82812 L 2271.3496,679.76172 L 2272.8262,679.76172 L 2273.1338,686.2627 L 2271.7188,686.2627 C 2271.4316,684.81349 2270.813,683.63429 2269.8628,682.7251 C 2268.9126,681.81594 2267.7539,681.36135 2266.3867,681.36133 C 2265.2656,681.36135 2264.3838,681.64162 2263.7412,682.20215 C 2263.0986,682.76271 2262.7773,683.43947 2262.7773,684.23242 C 2262.7773,684.84767 2262.8833,685.36037 2263.0952,685.77051 C 2263.3071,686.18068 2263.625,686.52931 2264.0488,686.81641 C 2264.459,687.08986 2264.9751,687.3462 2265.5972,687.58545 C 2266.2192,687.82472 2266.9883,688.09474 2267.9043,688.39551 C 2268.8066,688.68263 2269.6577,689.01759 2270.4575,689.40039 C 2271.2573,689.78321 2271.917,690.20704 2272.4365,690.67188 L 2272.4365,690.67188 z M 2295.1797,695.81934 C 2294.332,697.43262 2293.1972,698.71778 2291.7754,699.6748 C 2290.3535,700.63184 2288.7197,701.11035 2286.874,701.11035 C 2285.2471,701.11035 2283.8218,700.82324 2282.5981,700.24902 C 2281.3745,699.67481 2280.3662,698.89551 2279.5732,697.91113 C 2278.7803,696.92676 2278.189,695.77833 2277.7993,694.46582 C 2277.4097,693.15333 2277.2148,691.76563 2277.2148,690.30273 C 2277.2148,688.99025 2277.4233,687.70167 2277.8403,686.43701 C 2278.2573,685.17238 2278.8691,684.0342 2279.6758,683.02246 C 2280.4551,682.05178 2281.4224,681.26906 2282.5776,680.67432 C 2283.7329,680.07961 2285.0283,679.78225 2286.4639,679.78223 C 2287.9404,679.78225 2289.2051,680.01467 2290.2578,680.47949 C 2291.3105,680.94436 2292.165,681.5801 2292.8213,682.38672 C 2293.4502,683.15236 2293.9184,684.0547 2294.2261,685.09375 C 2294.5337,686.13283 2294.6875,687.26076 2294.6875,688.47754 L 2294.6875,689.83105 L 2281.2959,689.83105 C 2281.2959,691.15724 2281.4224,692.36036 2281.6753,693.44043 C 2281.9282,694.52051 2282.3281,695.47071 2282.875,696.29102 C 2283.4082,697.08399 2284.1055,697.70948 2284.9668,698.16748 C 2285.8281,698.62549 2286.8535,698.85449 2288.043,698.85449 C 2289.2598,698.85449 2290.3091,698.5708 2291.1909,698.00342 C 2292.0727,697.43604 2292.9238,696.41407 2293.7441,694.9375 L 2295.1797,695.81934 z M 2290.6475,688.1084 C 2290.6474,687.34279 2290.5825,686.52247 2290.4526,685.64746 C 2290.3227,684.77248 2290.1142,684.04103 2289.8271,683.45312 C 2289.5127,682.82424 2289.082,682.31154 2288.5352,681.91504 C 2287.9883,681.51857 2287.2842,681.32033 2286.4229,681.32031 C 2284.9873,681.32033 2283.7944,681.91848 2282.8442,683.11475 C 2281.894,684.31105 2281.3779,685.9756 2281.2959,688.1084 L 2290.6475,688.1084 z M 2319.8916,700.57715 L 2309.9863,700.57715 L 2309.9863,699.22363 C 2310.3008,699.19629 2310.646,699.16895 2311.022,699.1416 C 2311.3979,699.11426 2311.709,699.05957 2311.9551,698.97754 C 2312.3379,698.85449 2312.6216,698.63916 2312.8062,698.33154 C 2312.9907,698.02393 2313.083,697.62403 2313.083,697.13184 L 2313.083,686.73438 C 2313.083,685.29884 2312.7446,684.19142 2312.0679,683.41211 C 2311.3911,682.63283 2310.5674,682.24318 2309.5967,682.24316 C 2308.8721,682.24318 2308.209,682.35598 2307.6074,682.58154 C 2307.0058,682.80715 2306.4726,683.084 2306.0078,683.41211 C 2305.5566,683.72658 2305.1977,684.06496 2304.9312,684.42725 C 2304.6645,684.78957 2304.4697,685.08009 2304.3467,685.29883 L 2304.3467,696.92676 C 2304.3467,697.3916 2304.4424,697.77442 2304.6338,698.0752 C 2304.8252,698.37598 2305.1123,698.6084 2305.4951,698.77246 C 2305.7822,698.90918 2306.0933,699.01172 2306.4282,699.08008 C 2306.7632,699.14844 2307.1084,699.19629 2307.4639,699.22363 L 2307.4639,700.57715 L 2297.5586,700.57715 L 2297.5586,699.22363 C 2297.873,699.19629 2298.1978,699.16895 2298.5327,699.1416 C 2298.8677,699.11426 2299.1582,699.05957 2299.4043,698.97754 C 2299.7871,698.85449 2300.0708,698.63916 2300.2554,698.33154 C 2300.4399,698.02393 2300.5322,697.62403 2300.5322,697.13184 L 2300.5322,684.64258 C 2300.5322,684.17775 2300.4331,683.75051 2300.2349,683.36084 C 2300.0366,682.97121 2299.7598,682.65334 2299.4043,682.40723 C 2299.1445,682.24318 2298.8369,682.12355 2298.4814,682.04834 C 2298.126,681.97316 2297.7432,681.92189 2297.333,681.89453 L 2297.333,680.56152 L 2304.0596,680.11035 L 2304.3467,680.39746 L 2304.3467,683.24805 L 2304.4492,683.24805 C 2304.7773,682.91994 2305.1875,682.52687 2305.6797,682.06885 C 2306.1719,681.61086 2306.6367,681.2383 2307.0742,680.95117 C 2307.5801,680.62307 2308.1816,680.34963 2308.8789,680.13086 C 2309.5762,679.91213 2310.3623,679.80276 2311.2373,679.80273 C 2313.1787,679.80276 2314.6177,680.40774 2315.5542,681.61768 C 2316.4907,682.82765 2316.959,684.43752 2316.959,686.44727 L 2316.959,696.96777 C 2316.959,697.44629 2317.041,697.83252 2317.2051,698.12646 C 2317.3691,698.42041 2317.6494,698.64942 2318.0459,698.81348 C 2318.374,698.9502 2318.6577,699.0459 2318.897,699.10059 C 2319.1362,699.15527 2319.4678,699.19629 2319.8916,699.22363 L 2319.8916,700.57715 z"
       id="text3328" />
    <path
       style="font-size:42px;font-style:normal;font-variant:normal;font-weight:normal;font-stretch:normal;text-align:start;line-height:100%;writing-mode:lr-tb;text-anchor:start;fill:#3771c8;fill-opacity:1;stroke:none;stroke-width:1px;stroke-linecap:butt;stroke-linejoin:miter;stroke-opacity:1;font-family:Georgia;-inkscape-font-specification:Georgia"
       d="M 2344.9258,684.25293 C 2345.7871,685.03224 2346.4399,685.97218 2346.8843,687.07275 C 2347.3286,688.17335 2347.5508,689.38673 2347.5508,690.71289 C 2347.5508,693.62501 2346.6382,696.07911 2344.813,698.0752 C 2342.9878,700.07129 2340.667,701.06934 2337.8506,701.06934 C 2336.6611,701.06934 2335.6597,700.92578 2334.8462,700.63867 C 2334.0327,700.35156 2333.3867,700.03711 2332.9082,699.69531 L 2332.7441,699.69531 L 2332.7441,709.68262 L 2328.9092,709.68262 L 2328.9092,679.9873 C 2328.9092,677.93655 2329.063,676.30959 2329.3706,675.10645 C 2329.6782,673.90335 2330.4062,672.69339 2331.5547,671.47656 C 2332.3066,670.66995 2333.2568,670.02054 2334.4053,669.52832 C 2335.5537,669.03616 2336.8457,668.79007 2338.2812,668.79004 C 2339.3476,668.79007 2340.3594,668.91995 2341.3164,669.17969 C 2342.2734,669.43948 2343.1279,669.84964 2343.8799,670.41016 C 2344.6318,670.95706 2345.2197,671.64407 2345.6436,672.47119 C 2346.0674,673.29837 2346.2793,674.30667 2346.2793,675.49609 C 2346.2793,676.58987 2346.0742,677.54006 2345.6641,678.34668 C 2345.2539,679.15334 2344.7549,679.80276 2344.167,680.29492 C 2343.5928,680.8008 2342.9433,681.20412 2342.2188,681.50488 C 2341.4941,681.80568 2340.8379,681.99025 2340.25,682.05859 L 2340.332,682.24316 C 2340.9609,682.2842 2341.7095,682.47219 2342.5776,682.80713 C 2343.4458,683.14211 2344.2285,683.62404 2344.9258,684.25293 L 2344.9258,684.25293 z M 2343.2646,690.79492 C 2343.2646,689.8379 2343.186,688.87404 2343.0288,687.90332 C 2342.8716,686.93263 2342.6015,686.12599 2342.2188,685.4834 C 2341.8086,684.81349 2341.2514,684.28713 2340.5474,683.9043 C 2339.8432,683.5215 2338.9375,683.3301 2337.8301,683.33008 L 2335.9023,683.33008 L 2335.9023,681.38184 L 2337.2969,681.38184 C 2337.8984,681.38186 2338.5239,681.2759 2339.1733,681.06396 C 2339.8227,680.85207 2340.3799,680.52736 2340.8447,680.08984 C 2341.3779,679.59768 2341.7949,679.01662 2342.0957,678.34668 C 2342.3965,677.67678 2342.5469,676.77444 2342.5469,675.63965 C 2342.5469,673.94436 2342.1367,672.6387 2341.3164,671.72266 C 2340.4961,670.80667 2339.4228,670.34866 2338.0967,670.34863 C 2337.3037,670.34866 2336.603,670.47855 2335.9946,670.73828 C 2335.3862,670.99808 2334.8223,671.47659 2334.3027,672.17383 C 2333.8242,672.81643 2333.4448,673.7051 2333.1646,674.83984 C 2332.8843,675.97463 2332.7441,677.31448 2332.7441,678.85938 L 2332.7441,696.29102 C 2333.0312,697.16602 2333.6123,697.93164 2334.4873,698.58789 C 2335.3623,699.24414 2336.3672,699.57227 2337.502,699.57227 C 2339.2519,699.57227 2340.6499,698.78955 2341.6958,697.22412 C 2342.7417,695.6587 2343.2646,693.51563 2343.2646,690.79492 L 2343.2646,690.79492 z"
       id="text3354" />
    <path
       style="font-size:42px;font-style:normal;font-variant:normal;font-weight:normal;font-stretch:normal;text-indent:0;text-align:start;text-decoration:none;line-height:100%;letter-spacing:normal;word-spacing:normal;text-transform:none;direction:ltr;block-progression:tb;writing-mode:lr-tb;text-anchor:start;fill:#ff0000;fill-opacity:1;fill-rule:nonzero;stroke:none;stroke-width:1px;stroke-linecap:butt;stroke-linejoin:miter;stroke-miterlimit:4;stroke-dashoffset:0;stroke-opacity:1;marker:none;marker-start:none;marker-mid:none;marker-end:none;visibility:visible;display:inline;overflow:visible;enable-background:accumulate;font-family:Georgia;-inkscape-font-specification:Georgia"
       d="M 2079.5188,688.67188 C 2080.0793,689.16407 2080.51,689.73145 2080.8108,690.37402 C 2081.1116,691.01661 2081.2619,691.80274 2081.262,692.73242 C 2081.2619,694.60547 2080.5613,696.13672 2079.1599,697.32617 C 2077.7585,698.51563 2075.9436,699.11035 2073.7151,699.11035 C 2072.5393,699.11035 2071.4558,698.89844 2070.4646,698.47461 C 2069.4734,698.05078 2068.7659,697.66113 2068.342,697.30566 L 2067.9319,698.63867 L 2066.3938,698.63867 L 2066.1887,691.60449 L 2067.6038,691.60449 C 2067.7131,692.1377 2067.9456,692.75977 2068.301,693.4707 C 2068.6565,694.18165 2069.0872,694.82422 2069.593,695.39844 C 2070.1262,696 2070.7654,696.50586 2071.5105,696.91602 C 2072.2556,697.32617 2073.093,697.53125 2074.0227,697.53125 C 2075.3352,697.53125 2076.3469,697.23389 2077.0579,696.63916 C 2077.7688,696.04444 2078.1243,695.19336 2078.1243,694.08594 C 2078.1243,693.51172 2078.0115,693.01612 2077.7859,692.59912 C 2077.5603,692.18214 2077.2287,691.81641 2076.7913,691.50195 C 2076.3401,691.18751 2075.7864,690.90382 2075.1301,690.65088 C 2074.4739,690.39796 2073.7424,690.14845 2072.9358,689.90234 C 2072.2932,689.71095 2071.5789,689.44776 2070.7927,689.11279 C 2070.0066,688.77784 2069.3332,688.38478 2068.7727,687.93359 C 2068.1711,687.45509 2067.679,686.8672 2067.2961,686.16992 C 2066.9133,685.47267 2066.7219,684.65236 2066.7219,683.70898 C 2066.7219,682.0547 2067.3372,680.65334 2068.5676,679.50488 C 2069.7981,678.35647 2071.4455,677.78225 2073.51,677.78223 C 2074.303,677.78225 2075.113,677.88479 2075.9402,678.08984 C 2076.7673,678.29494 2077.4407,678.54104 2077.9602,678.82812 L 2078.4319,677.76172 L 2079.9084,677.76172 L 2080.2161,684.2627 L 2078.801,684.2627 C 2078.5139,682.81349 2077.8953,681.63429 2076.9451,680.7251 C 2075.9949,679.81594 2074.8362,679.36135 2073.469,679.36133 C 2072.3479,679.36135 2071.4661,679.64162 2070.8235,680.20215 C 2070.1809,680.76271 2069.8596,681.43947 2069.8596,682.23242 C 2069.8596,682.84767 2069.9656,683.36037 2070.1775,683.77051 C 2070.3894,684.18068 2070.7073,684.52931 2071.1311,684.81641 C 2071.5413,685.08986 2072.0574,685.3462 2072.6794,685.58545 C 2073.3015,685.82472 2074.0705,686.09474 2074.9866,686.39551 C 2075.8889,686.68263 2076.74,687.01759 2077.5398,687.40039 C 2078.3396,687.78321 2078.9993,688.20704 2079.5188,688.67188 L 2079.5188,688.67188 z M 2102.262,693.81934 C 2101.4143,695.43262 2100.2795,696.71778 2098.8577,697.6748 C 2097.4358,698.63184 2095.802,699.11035 2093.9563,699.11035 C 2092.3293,699.11035 2090.904,698.82324 2089.6804,698.24902 C 2088.4568,697.67481 2087.4485,696.89551 2086.6555,695.91113 C 2085.8625,694.92676 2085.2712,693.77833 2084.8816,692.46582 C 2084.4919,691.15333 2084.2971,689.76563 2084.2971,688.30273 C 2084.2971,686.99025 2084.5056,685.70167 2084.9226,684.43701 C 2085.3396,683.17238 2085.9514,682.0342 2086.7581,681.02246 C 2087.5373,680.05178 2088.5046,679.26906 2089.6599,678.67432 C 2090.8152,678.07961 2092.1106,677.78225 2093.5461,677.78223 C 2095.0227,677.78225 2096.2873,678.01467 2097.3401,678.47949 C 2098.3928,678.94436 2099.2473,679.5801 2099.9036,680.38672 C 2100.5325,681.15236 2101.0007,682.0547 2101.3083,683.09375 C 2101.6159,684.13283 2101.7698,685.26076 2101.7698,686.47754 L 2101.7698,687.83105 L 2088.3782,687.83105 C 2088.3782,689.15724 2088.5046,690.36036 2088.7576,691.44043 C 2089.0105,692.52051 2089.4104,693.47071 2089.9573,694.29102 C 2090.4905,695.08399 2091.1877,695.70948 2092.0491,696.16748 C 2092.9104,696.62549 2093.9358,696.85449 2095.1252,696.85449 C 2096.342,696.85449 2097.3913,696.5708 2098.2732,696.00342 C 2099.155,695.43604 2100.0061,694.41407 2100.8264,692.9375 L 2102.262,693.81934 z M 2097.7297,686.1084 C 2097.7297,685.34279 2097.6648,684.52247 2097.5349,683.64746 C 2097.405,682.77248 2097.1965,682.04103 2096.9094,681.45312 C 2096.595,680.82424 2096.1643,680.31154 2095.6174,679.91504 C 2095.0705,679.51857 2094.3664,679.32033 2093.5051,679.32031 C 2092.0696,679.32033 2090.8767,679.91848 2089.9265,681.11475 C 2088.9763,682.31105 2088.4602,683.9756 2088.3782,686.1084 L 2097.7297,686.1084 z M 2126.9739,698.57715 L 2117.0686,698.57715 L 2117.0686,697.22363 C 2117.383,697.19629 2117.7283,697.16895 2118.1042,697.1416 C 2118.4802,697.11426 2118.7912,697.05957 2119.0374,696.97754 C 2119.4201,696.85449 2119.7038,696.63916 2119.8884,696.33154 C 2120.073,696.02393 2120.1653,695.62403 2120.1653,695.13184 L 2120.1653,684.73438 C 2120.1653,683.29884 2119.8269,682.19142 2119.1501,681.41211 C 2118.4734,680.63283 2117.6496,680.24318 2116.679,680.24316 C 2115.9543,680.24318 2115.2912,680.35598 2114.6897,680.58154 C 2114.0881,680.80715 2113.5549,681.084 2113.0901,681.41211 C 2112.6389,681.72658 2112.28,682.06496 2112.0134,682.42725 C 2111.7468,682.78957 2111.552,683.08009 2111.429,683.29883 L 2111.429,694.92676 C 2111.4289,695.3916 2111.5246,695.77442 2111.7161,696.0752 C 2111.9075,696.37598 2112.1946,696.6084 2112.5774,696.77246 C 2112.8645,696.90918 2113.1755,697.01172 2113.5105,697.08008 C 2113.8454,697.14844 2114.1907,697.19629 2114.5461,697.22363 L 2114.5461,698.57715 L 2104.6409,698.57715 L 2104.6409,697.22363 C 2104.9553,697.19629 2105.28,697.16895 2105.615,697.1416 C 2105.9499,697.11426 2106.2405,697.05957 2106.4866,696.97754 C 2106.8694,696.85449 2107.1531,696.63916 2107.3376,696.33154 C 2107.5222,696.02393 2107.6145,695.62403 2107.6145,695.13184 L 2107.6145,682.64258 C 2107.6145,682.17775 2107.5154,681.75051 2107.3171,681.36084 C 2107.1189,680.97121 2106.842,680.65334 2106.4866,680.40723 C 2106.2268,680.24318 2105.9192,680.12355 2105.5637,680.04834 C 2105.2082,679.97316 2104.8254,679.92189 2104.4153,679.89453 L 2104.4153,678.56152 L 2111.1418,678.11035 L 2111.429,678.39746 L 2111.429,681.24805 L 2111.5315,681.24805 C 2111.8596,680.91994 2112.2698,680.52687 2112.762,680.06885 C 2113.2541,679.61086 2113.719,679.2383 2114.1565,678.95117 C 2114.6623,678.62307 2115.2639,678.34963 2115.9612,678.13086 C 2116.6584,677.91213 2117.4446,677.80276 2118.3196,677.80273 C 2120.261,677.80276 2121.6999,678.40774 2122.6365,679.61768 C 2123.573,680.82765 2124.0412,682.43752 2124.0413,684.44727 L 2124.0413,694.96777 C 2124.0412,695.44629 2124.1233,695.83252 2124.2874,696.12646 C 2124.4514,696.42041 2124.7317,696.64942 2125.1282,696.81348 C 2125.4563,696.9502 2125.74,697.0459 2125.9792,697.10059 C 2126.2185,697.15527 2126.55,697.19629 2126.9739,697.22363 L 2126.9739,698.57715 z"
       id="text3324" />
    <path
       style="font-size:42px;font-style:normal;font-variant:normal;font-weight:normal;font-stretch:normal;text-align:start;line-height:100%;writing-mode:lr-tb;text-anchor:start;fill:#ff0000;fill-opacity:1;stroke:none;stroke-width:1px;stroke-linecap:butt;stroke-linejoin:miter;stroke-opacity:1;font-family:Georgia;-inkscape-font-specification:Georgia"
       d="M 2159.7761,698.1875 C 2159.0788,698.43359 2158.3474,698.63184 2157.5818,698.78223 C 2156.8161,698.93262 2156.2146,699.00781 2155.7771,699.00781 C 2154.6286,699.00781 2153.7605,698.67627 2153.1726,698.01318 C 2152.5847,697.3501 2152.1745,696.16406 2151.9421,694.45508 C 2151.5867,695.04297 2151.1526,695.64795 2150.6399,696.27002 C 2150.1272,696.89209 2149.5906,697.39453 2149.03,697.77734 C 2148.3874,698.22852 2147.738,698.57373 2147.0818,698.81299 C 2146.4255,699.05225 2145.6326,699.17187 2144.7029,699.17188 C 2143.5681,699.17187 2142.4778,698.91894 2141.4319,698.41309 C 2140.386,697.90723 2139.4597,697.18262 2138.6531,696.23926 C 2137.8464,695.2959 2137.2107,694.16114 2136.7458,692.83496 C 2136.281,691.5088 2136.0486,690.04591 2136.0486,688.44629 C 2136.0486,686.98341 2136.2947,685.59572 2136.7869,684.2832 C 2137.2791,682.97072 2137.9695,681.81545 2138.8582,680.81738 C 2139.7058,679.87404 2140.7141,679.13576 2141.8831,678.60254 C 2143.052,678.06936 2144.2654,677.80276 2145.5232,677.80273 C 2147.1501,677.80276 2148.531,678.19582 2149.6658,678.98193 C 2150.8005,679.76809 2151.6345,680.86525 2152.1677,682.27344 L 2152.6804,678.35645 L 2156.4949,678.35645 C 2156.3991,679.32717 2156.1907,680.77638 2155.8694,682.7041 C 2155.5481,684.63185 2155.1755,686.73732 2154.7517,689.02051 C 2154.7927,691.03028 2155.0217,692.7085 2155.4387,694.05518 C 2155.8557,695.40186 2156.3923,696.2666 2157.0486,696.64941 C 2157.2536,696.77246 2157.6433,696.84082 2158.2175,696.85449 C 2158.7917,696.86817 2159.3113,696.875 2159.7761,696.875 L 2159.7761,698.1875 z M 2151.5525,687.85156 C 2151.4568,686.85353 2151.2995,685.84181 2151.0808,684.81641 C 2150.862,683.79103 2150.5339,682.88185 2150.0964,682.08887 C 2149.6726,681.28224 2149.1223,680.62941 2148.4456,680.13037 C 2147.7688,679.63137 2146.9314,679.38186 2145.9333,679.38184 C 2144.3201,679.38186 2142.9836,680.209 2141.9241,681.86328 C 2140.8645,683.51759 2140.3347,685.79396 2140.3347,688.69238 C 2140.3347,689.79981 2140.4509,690.84913 2140.6833,691.84033 C 2140.9158,692.83155 2141.2439,693.68946 2141.6677,694.41406 C 2142.1189,695.17969 2142.7102,695.79834 2143.4417,696.27002 C 2144.1731,696.7417 2145.0447,696.97754 2146.0564,696.97754 C 2147.7244,696.97754 2149.0232,696.22901 2149.9529,694.73193 C 2150.8826,693.23487 2151.4158,690.94141 2151.5525,687.85156 L 2151.5525,687.85156 z"
       id="text3358" />
    <path
       style="font-size:42px;font-style:italic;font-variant:normal;font-weight:normal;font-stretch:normal;text-align:start;line-height:100%;writing-mode:lr-tb;text-anchor:start;fill:#ff0000;fill-opacity:1;stroke:none;stroke-width:1px;stroke-linecap:butt;stroke-linejoin:miter;stroke-opacity:1;font-family:Georgia;-inkscape-font-specification:Georgia Italic"
       d="M 2115.3308,648.08606 L 2115.1873,648.08606 C 2114.8865,648.33216 2114.5276,648.64319 2114.1106,649.01917 C 2113.6936,649.39514 2113.2048,649.75403 2112.6443,650.09583 C 2112.1111,650.43762 2111.53,650.73499 2110.9011,650.98792 C 2110.2722,651.24084 2109.5886,651.36731 2108.8503,651.36731 C 2106.8679,651.36731 2105.3127,650.65637 2104.1848,649.2345 C 2103.0569,647.81263 2102.4929,645.87122 2102.4929,643.41028 C 2102.4929,641.71497 2102.8074,640.06752 2103.4363,638.4679 C 2104.0652,636.8683 2104.9333,635.43275 2106.0408,634.16125 C 2107.0935,632.94448 2108.3445,631.96352 2109.7937,631.21838 C 2111.2429,630.47329 2112.7331,630.10073 2114.2644,630.10071 C 2115.2351,630.10073 2116.1614,630.23061 2117.0432,630.49036 C 2117.925,630.75014 2118.6189,631.04409 2119.1248,631.37219 L 2122.8777,630.40833 L 2123.1238,630.71594 L 2120.0066,643.94348 C 2119.8972,644.36732 2119.7844,644.88343 2119.6682,645.49182 C 2119.552,646.10022 2119.4939,646.54798 2119.4939,646.83508 C 2119.4939,647.61438 2119.6579,648.14075 2119.9861,648.41418 C 2120.3142,648.68762 2120.8679,648.82434 2121.6472,648.82434 C 2121.907,648.82434 2122.2761,648.78333 2122.7546,648.70129 C 2123.2331,648.61926 2123.6023,648.5304 2123.8621,648.43469 L 2123.5544,649.74719 C 2122.324,650.23938 2121.4079,650.59485 2120.8064,650.8136 C 2120.2048,651.03235 2119.4734,651.14172 2118.6121,651.14172 C 2117.6277,651.14172 2116.8484,650.85461 2116.2742,650.2804 C 2115.6999,649.70618 2115.3855,648.97473 2115.3308,648.08606 L 2115.3308,648.08606 z M 2118.2634,635.12512 C 2118.2634,634.67397 2118.2156,634.2433 2118.1199,633.83313 C 2118.0242,633.42299 2117.8259,633.04018 2117.5251,632.68469 C 2117.2517,632.34291 2116.8757,632.06948 2116.3972,631.86438 C 2115.9187,631.65932 2115.3171,631.55678 2114.5925,631.55676 C 2113.5945,631.55678 2112.6238,631.88491 2111.6804,632.54114 C 2110.7371,633.19741 2109.8894,634.07924 2109.1375,635.18665 C 2108.4265,636.22572 2107.8455,637.48353 2107.3943,638.96008 C 2106.9431,640.43666 2106.7175,641.93372 2106.7175,643.45129 C 2106.7175,644.28528 2106.7654,645.02357 2106.8611,645.66614 C 2106.9568,646.30872 2107.1414,646.89661 2107.4148,647.42981 C 2107.6746,647.94934 2108.0505,648.35266 2108.5427,648.63977 C 2109.0349,648.92688 2109.657,649.07044 2110.4089,649.07043 C 2111.1746,649.07044 2111.9778,648.8551 2112.8186,648.42444 C 2113.6594,647.99378 2114.6062,647.23841 2115.6589,646.15833 L 2118.2634,635.12512 z"
       id="text3362" />
    <path
       style="font-size:42px;font-style:italic;font-variant:normal;font-weight:normal;font-stretch:normal;text-align:start;line-height:100%;writing-mode:lr-tb;text-anchor:start;fill:#3771c8;fill-opacity:1;stroke:none;stroke-width:1px;stroke-linecap:butt;stroke-linejoin:miter;stroke-opacity:1;font-family:Georgia;-inkscape-font-specification:Georgia Italic"
       d="M 2313.2852,629.93469 C 2313.2851,631.75306 2312.957,633.49281 2312.3008,635.15393 C 2311.6445,636.81507 2310.7763,638.2472 2309.6963,639.45032 C 2308.5889,640.68079 2307.3379,641.64807 2305.9434,642.35217 C 2304.5488,643.05627 2303.0723,643.40832 2301.5137,643.40833 C 2300.3379,643.40832 2299.3022,643.3092 2298.4067,643.11096 C 2297.5112,642.91272 2296.749,642.6427 2296.1201,642.3009 C 2295.4775,641.94544 2294.9443,641.54553 2294.5205,641.1012 C 2294.0967,640.65686 2293.7139,640.16126 2293.3721,639.61438 L 2298.6631,616.39954 C 2298.7314,616.08511 2298.7895,615.81509 2298.8374,615.58948 C 2298.8852,615.36392 2298.9092,615.13492 2298.9092,614.90247 C 2298.9092,614.41031 2298.8271,614.03091 2298.6631,613.76428 C 2298.499,613.49771 2298.2666,613.29605 2297.9658,613.1593 C 2297.6787,613.03628 2297.3164,612.95425 2296.8789,612.91321 C 2296.4414,612.87222 2295.9971,612.82437 2295.5459,612.76965 L 2295.833,611.51868 L 2303.4414,611.047 L 2303.6465,611.35461 L 2300.5293,624.99231 L 2300.6113,624.99231 C 2301.8418,623.89858 2302.9253,623.14321 2303.8618,622.7262 C 2304.7983,622.30922 2305.7109,622.10073 2306.5996,622.10071 C 2308.6777,622.10073 2310.3115,622.80825 2311.501,624.22327 C 2312.6904,625.63832 2313.2851,627.54213 2313.2852,629.93469 L 2313.2852,629.93469 z M 2309.0605,630.03723 C 2309.0605,629.31264 2308.9956,628.58461 2308.8657,627.85315 C 2308.7358,627.12172 2308.5205,626.5099 2308.2197,626.0177 C 2307.9053,625.49819 2307.4746,625.08803 2306.9277,624.78723 C 2306.3808,624.48647 2305.7041,624.33608 2304.8975,624.33606 C 2304.4189,624.33608 2303.9678,624.41811 2303.5439,624.58215 C 2303.1201,624.74623 2302.6826,624.96498 2302.2314,625.2384 C 2301.835,625.48451 2301.4487,625.78188 2301.0728,626.13049 C 2300.6968,626.47914 2300.3516,626.79018 2300.0371,627.0636 L 2297.3096,639.22473 C 2297.3506,639.49817 2297.4736,639.79895 2297.6787,640.12708 C 2297.8838,640.4552 2298.1435,640.74231 2298.458,640.9884 C 2298.8408,641.30286 2299.2715,641.54212 2299.75,641.70618 C 2300.2285,641.87024 2300.7549,641.95227 2301.3291,641.95227 C 2302.4092,641.95227 2303.4243,641.6344 2304.3745,640.99866 C 2305.3247,640.36292 2306.1416,639.50501 2306.8252,638.42493 C 2307.5771,637.24915 2308.1377,635.93665 2308.5068,634.48743 C 2308.876,633.03822 2309.0605,631.55482 2309.0605,630.03723 L 2309.0605,630.03723 z"
       id="text3366" />
    <path
       style="font-size:42px;font-style:italic;font-variant:normal;font-weight:normal;font-stretch:normal;text-align:start;line-height:100%;writing-mode:lr-tb;text-anchor:start;fill:#27a127;fill-opacity:1;stroke:none;stroke-width:1px;stroke-linecap:butt;stroke-linejoin:miter;stroke-opacity:1;font-family:Georgia;-inkscape-font-specification:Georgia Italic"
       d="M 2490.0095,651.36731 C 2487.6169,651.36731 2485.7268,650.67004 2484.3391,649.27551 C 2482.9514,647.88098 2482.2576,645.89856 2482.2576,643.32825 C 2482.2576,641.61927 2482.5208,639.98207 2483.0471,638.41663 C 2483.5735,636.85121 2484.3083,635.4601 2485.2517,634.24329 C 2486.1951,633.02651 2487.3879,632.03188 2488.8303,631.2594 C 2490.2727,630.48696 2491.8757,630.10073 2493.6394,630.10071 C 2495.5945,630.10073 2497.0813,630.5143 2498.0999,631.34143 C 2499.1184,632.1686 2499.6277,633.21108 2499.6277,634.46887 C 2499.6277,635.41225 2499.4055,636.23939 2498.9612,636.95032 C 2498.5168,637.66127 2497.8503,638.01674 2496.9617,638.01672 C 2496.2234,638.01674 2495.6697,637.83217 2495.3005,637.46301 C 2494.9314,637.09389 2494.7468,636.68373 2494.7468,636.23254 C 2494.7468,635.79506 2494.8972,635.19692 2495.198,634.43811 C 2495.4988,633.67934 2495.738,633.06752 2495.9158,632.60266 C 2495.7654,632.23354 2495.4304,631.96352 2494.9109,631.7926 C 2494.3913,631.62172 2493.8513,631.53627 2493.2908,631.53625 C 2491.4314,631.53627 2489.8284,632.61977 2488.4817,634.78674 C 2487.135,636.95375 2486.4617,639.60951 2486.4617,642.75403 C 2486.4617,644.69544 2486.8957,646.23694 2487.7639,647.37854 C 2488.6321,648.52014 2489.8044,649.09094 2491.281,649.09094 C 2492.6072,649.09094 2493.7864,648.73548 2494.8186,648.02454 C 2495.8508,647.3136 2496.8386,646.30872 2497.782,645.00989 L 2498.9509,645.87122 C 2498.0076,647.36145 2496.7258,648.65003 2495.1057,649.73694 C 2493.4856,650.82385 2491.7869,651.36731 2490.0095,651.36731 L 2490.0095,651.36731 z"
       id="text3370" />
    <path
       style="fill:#ff0000;fill-rule:evenodd;stroke:#ff0000;stroke-width:3;stroke-linecap:butt;stroke-linejoin:miter;stroke-miterlimit:4;stroke-dasharray:none;stroke-opacity:1"
       d="M 2062.9482,664.69205 L 2164.5725,664.69205"
       id="path3374" />
    <path
       id="path3376"
       d="M 2252.5165,664.69205 L 2354.1407,664.69205"
       style="fill:#3771c8;fill-rule:evenodd;stroke:#3771c8;stroke-width:3;stroke-linecap:butt;stroke-linejoin:miter;stroke-miterlimit:4;stroke-dasharray:none;stroke-opacity:1" />
    <path
       style="fill:none;fill-rule:evenodd;stroke:#27a127;stroke-width:3;stroke-linecap:butt;stroke-linejoin:miter;stroke-miterlimit:4;stroke-dasharray:none;stroke-opacity:1"
       d="M 2440.1305,664.69205 L 2541.7547,664.69205"
       id="path3378" />
    <path
       style="font-size:48px;font-style:italic;font-variant:normal;font-weight:normal;font-stretch:normal;text-align:start;line-height:100%;writing-mode:lr-tb;text-anchor:start;fill:#000000;fill-opacity:1;stroke:none;stroke-width:1px;stroke-linecap:butt;stroke-linejoin:miter;stroke-opacity:1;font-family:Georgia;-inkscape-font-specification:Georgia Italic"
       d="M 2225.6396,661.67108 L 2201.9912,661.67108 L 2201.9912,658.74139 L 2225.6396,658.74139 L 2225.6396,661.67108 z M 2225.6396,670.38983 L 2201.9912,670.38983 L 2201.9912,667.46014 L 2225.6396,667.46014 L 2225.6396,670.38983 z"
       id="text3398" />
    <path
       style="font-size:48px;font-style:italic;font-variant:normal;font-weight:normal;font-stretch:normal;text-align:start;line-height:100%;writing-mode:lr-tb;text-anchor:start;fill:#000000;fill-opacity:1;stroke:none;stroke-width:1px;stroke-linecap:butt;stroke-linejoin:miter;stroke-opacity:1;font-family:Georgia;-inkscape-font-specification:Georgia Italic"
       d="M 2409.8054,661.67108 L 2386.157,661.67108 L 2386.157,658.74139 L 2409.8054,658.74139 L 2409.8054,661.67108 z M 2409.8054,670.38983 L 2386.157,670.38983 L 2386.157,667.46014 L 2409.8054,667.46014 L 2409.8054,670.38983 z"
       id="text3402" />
  </g>
</svg>
